# Blender v2.82 (sub 7) OBJ File: 'gamecube_boundingbox.blend'
# www.blender.org
mtllib gamecube.mtl
o Cube.001_Cube.003
v 0.187500 0.025000 0.255799
v 0.187500 0.475000 0.255799
v 0.815335 0.475000 0.255799
v 0.815335 0.025000 0.255799
v 0.710696 0.100000 0.255799
v 0.710696 0.275000 0.255799
v 0.292140 0.275000 0.255799
v 0.292140 0.100000 0.255799
v 0.265980 0.350000 0.883634
v 0.187500 0.475000 0.883634
v 0.187500 0.025000 0.883634
v 0.265980 0.150000 0.883634
v 0.815336 0.475000 0.883634
v 0.815336 0.025000 0.883634
v 0.736856 0.350000 0.883634
v 0.265886 0.025000 0.883634
v 0.318349 0.025000 0.883634
v 0.684537 0.025000 0.883634
v 0.736856 0.025000 0.883634
v 0.736856 0.150000 0.883634
v 0.736856 0.325000 0.909794
v 0.736856 0.175000 0.909794
v 0.265980 0.325000 0.909794
v 0.265980 0.175000 0.909794
v 0.684537 -0.000000 0.883634
v 0.736856 -0.000000 0.883634
v 0.318300 0.025000 0.857475
v 0.318349 -0.000000 0.883634
v 0.318300 -0.000000 0.857475
v 0.265886 -0.000000 0.883634
v 0.265980 0.025000 0.857475
v 0.265980 -0.000000 0.857475
v 0.684537 0.025000 0.857475
v 0.684537 -0.000000 0.857475
v 0.736856 0.025000 0.857475
v 0.736856 -0.000000 0.857475
v 0.318299 0.425000 0.229639
v 0.422938 0.425000 0.177320
v 0.422938 0.425000 0.125000
v 0.318299 0.425000 0.177320
v 0.579897 0.425000 0.177320
v 0.579897 0.425000 0.125000
v 0.684536 0.425000 0.229639
v 0.684536 0.425000 0.177320
v 0.710696 0.425000 0.255799
v 0.763016 0.425000 0.255799
v 0.292140 0.100000 0.281959
v 0.292140 0.275000 0.281959
v 0.710696 0.275000 0.281959
v 0.710696 0.100000 0.281959
v 0.239820 0.425000 0.255799
v 0.292140 0.425000 0.255799
v 0.318299 0.325000 0.229639
v 0.318299 0.325000 0.177320
v 0.422938 0.325000 0.125000
v 0.422938 0.325000 0.177320
v 0.579897 0.325000 0.125000
v 0.579897 0.325000 0.177320
v 0.684536 0.325000 0.177320
v 0.684536 0.325000 0.229639
v 0.763016 0.325000 0.255799
v 0.710696 0.325000 0.255799
v 0.239820 0.325000 0.255799
v 0.292140 0.325000 0.255799
v 0.265959 0.025000 0.308118
v 0.265909 0.025000 0.281959
v 0.265909 -0.000000 0.281959
v 0.265959 -0.000000 0.308118
v 0.318372 0.025000 0.281959
v 0.318372 -0.000000 0.281959
v 0.318278 0.025000 0.308118
v 0.318278 -0.000000 0.308118
v 0.684515 0.025000 0.308118
v 0.684466 0.025000 0.281959
v 0.684466 -0.000000 0.281959
v 0.684515 -0.000000 0.308118
v 0.736929 0.025000 0.281959
v 0.736929 -0.000000 0.281959
v 0.736835 0.025000 0.308118
v 0.736835 -0.000000 0.308118
vt 0.312500 0.843750
vt 0.062500 0.843750
vt 0.000000 0.718750
vt -0.000000 0.343750
vt 0.046875 0.140625
vt 0.046875 0.265625
vt 0.375000 1.000000
vt 0.656250 0.625000
vt 0.656250 1.000000
vt 0.375000 0.343750
vt 0.375000 0.062500
vt 0.328125 0.140625
vt 0.328125 0.062500
vt 0.328125 0.265625
vt 0.828125 0.890625
vt 0.843750 0.921875
vt 0.828125 0.921875
vt 0.375000 0.625000
vt 0.656250 0.250000
vt 0.656250 0.625000
vt 0.046875 0.156250
vt 0.328125 0.250000
vt 0.046875 0.250000
vt 0.828125 0.921875
vt 0.843750 0.890625
vt 0.843750 0.921875
vt 0.328125 0.156250
vt 0.296875 0.078125
vt 0.328125 0.062500
vt 0.328125 0.078125
vt 0.046875 0.078125
vt 0.062500 0.062500
vt 0.062500 0.078125
vt 0.375000 0.718750
vt 0.078125 0.062500
vt 0.046875 0.078125
vt 0.046875 0.062500
vt 0.046875 0.078125
vt 0.062500 0.062500
vt 0.062500 0.078125
vt 0.296875 0.078125
vt 0.312500 0.062500
vt 0.312500 0.078125
vt 0.296875 0.078125
vt 0.312500 0.062500
vt 0.312500 0.078125
vt 0.718750 0.906250
vt 0.718750 0.906250
vt 0.718750 0.906250
vt 0.718750 0.906250
vt 0.718750 0.906250
vt 0.718750 0.906250
vt 0.718750 0.906250
vt 0.718750 0.906250
vt 0.734375 0.906250
vt 0.062500 0.843750
vt 0.312500 0.953125
vt 0.062500 0.953125
vt 0.734375 0.906250
vt 0.703125 0.906250
vt 0.703125 0.906250
vt 0.312571 0.953557
vt 0.000000 1.000000
vt 0.061311 0.953118
vt 0.125000 0.687500
vt 0.218750 0.671875
vt 0.218750 0.687500
vt 0.343750 0.843750
vt 0.343750 0.890625
vt 0.343750 0.890625
vt 0.078125 0.875000
vt 0.093750 0.906250
vt 0.078125 0.906250
vt 0.703125 0.906250
vt 0.718750 0.906250
vt 0.718750 0.906250
vt 0.718750 0.906250
vt 0.718750 0.906250
vt 0.718750 0.906250
vt 0.718750 0.906250
vt 0.718750 0.906250
vt 0.734375 0.906250
vt 0.734375 0.906250
vt 0.703125 0.906250
vt 0.703125 0.906250
vt 0.718750 0.906250
vt 0.734375 0.906250
vt 0.703125 0.906250
vt 0.046875 0.078125
vt 0.062500 0.062500
vt 0.062500 0.078125
vt 0.078125 0.062500
vt 0.046875 0.078125
vt 0.046875 0.062500
vt 0.046875 0.078125
vt 0.062500 0.062500
vt 0.062500 0.078125
vt 0.046875 0.078125
vt 0.062500 0.062500
vt 0.062500 0.078125
vt 0.078125 0.062500
vt 0.046875 0.078125
vt 0.046875 0.062500
vt 0.046875 0.078125
vt 0.062500 0.062500
vt 0.062500 0.078125
vt 0.062500 0.953125
vt 0.375000 1.000000
vt 0.312500 0.953125
vt -0.000000 0.062500
vt 0.375000 0.625000
vt 0.046819 0.062500
vt 0.078155 0.062500
vt 0.296875 0.062500
vt 0.843750 0.890625
vt 0.375000 0.250000
vt 0.828125 0.890625
vt 0.296875 0.062500
vt 0.046875 0.062500
vt 0.078125 0.078125
vt 0.046875 0.062500
vt 0.296875 0.062500
vt 0.296875 0.062500
vt 0.312500 0.843750
vt 0.734375 0.906250
vt 0.125000 0.671875
vt 0.343750 0.843750
vt 0.093750 0.875000
vt 0.046875 0.062500
vt 0.078125 0.078125
vt 0.046875 0.062500
vt 0.046875 0.062500
vt 0.078125 0.078125
vt 0.046875 0.062500
vn -0.0000 0.0000 -1.0000
vn 0.0000 -0.0000 1.0000
vn 1.0000 -0.0000 -0.0000
vn -1.0000 0.0000 0.0000
vn 0.0000 0.7230 0.6909
vn 0.0000 -0.7230 0.6909
vn 1.0000 0.0000 -0.0019
vn 0.0000 1.0000 0.0000
vn -1.0000 0.0000 -0.0036
vn 0.0000 -1.0000 0.0000
vn -0.4472 0.0000 0.8944
vn -0.7071 0.0000 0.7071
vn 0.7071 0.0000 0.7071
vn 0.4472 0.0000 -0.8944
vn -0.7071 0.0000 -0.7071
vn 0.4472 -0.0000 0.8944
vn 0.7071 0.0000 -0.7071
vn -0.4472 0.0000 -0.8944
vn -1.0000 0.0000 0.0019
vn 1.0000 0.0000 0.0036
usemtl Material.001
s 1
f 6/1/1 7/2/1 2/3/1
f 10/4/2 12/5/2 9/6/2
f 3/7/3 14/8/3 4/9/3
f 9/6/2 13/10/2 10/4/2
f 14/11/2 20/12/2 19/13/2
f 14/11/2 15/14/2 20/12/2
f 22/15/3 15/16/3 21/17/3
f 10/18/4 1/19/4 11/20/4
f 24/21/2 21/22/2 23/23/2
f 9/6/5 21/22/5 15/14/5
f 9/24/4 24/25/4 23/26/4
f 24/21/6 20/12/6 22/27/6
f 18/28/2 26/29/2 19/30/2
f 17/31/7 29/32/7 27/33/7
f 2/3/8 13/10/8 3/34/8
f 16/35/2 28/36/2 17/37/2
f 31/38/9 30/39/9 16/40/9
f 33/41/4 25/42/4 18/43/4
f 19/44/3 36/45/3 35/46/3
f 38/47/8 40/48/8 37/49/8
f 41/50/8 39/51/8 38/47/8
f 41/50/8 44/52/8 42/53/8
f 43/54/8 46/55/8 44/52/8
f 48/56/1 50/57/1 47/58/1
f 6/59/10 48/60/10 7/61/10
f 5/62/1 1/63/1 8/64/1
f 8/65/8 50/66/8 5/67/8
f 7/68/3 47/69/3 8/70/3
f 5/71/4 49/72/4 6/73/4
f 51/74/8 37/49/8 40/48/8
f 54/75/10 56/76/10 53/77/10
f 55/78/10 58/79/10 56/76/10
f 58/79/10 59/80/10 60/81/10
f 60/81/10 61/82/10 62/83/10
f 63/84/10 53/77/10 64/85/10
f 57/86/1 39/51/1 42/53/1
f 58/79/11 43/54/11 41/50/11
f 60/81/12 45/87/12 43/54/12
f 64/85/13 37/49/13 52/88/13
f 59/80/14 42/53/14 44/52/14
f 54/75/15 51/74/15 40/48/15
f 62/83/2 46/55/2 45/87/2
f 53/77/16 38/47/16 37/49/16
f 61/82/17 44/52/17 46/55/17
f 55/78/18 40/48/18 39/51/18
f 63/84/2 52/88/2 51/74/2
f 56/76/2 41/50/2 38/47/2
f 66/89/19 68/90/19 65/91/19
f 69/92/1 67/93/1 66/94/1
f 71/95/20 70/96/20 69/97/20
f 74/98/19 76/99/19 73/100/19
f 77/101/1 75/102/1 74/103/1
f 79/104/20 78/105/20 77/106/20
f 8/107/1 1/63/1 7/2/1
f 1/63/1 2/3/1 7/2/1
f 3/34/1 4/108/1 6/1/1
f 4/108/1 5/109/1 6/1/1
f 3/34/1 6/1/1 2/3/1
f 10/4/2 11/110/2 12/5/2
f 3/7/3 13/111/3 14/8/3
f 9/6/2 15/14/2 13/10/2
f 12/5/2 11/110/2 16/112/2
f 17/113/2 18/114/2 20/12/2
f 18/114/2 19/13/2 20/12/2
f 17/113/2 20/12/2 12/5/2
f 12/5/2 16/112/2 17/113/2
f 14/11/2 13/10/2 15/14/2
f 22/15/3 20/115/3 15/16/3
f 10/18/4 2/116/4 1/19/4
f 24/21/2 22/27/2 21/22/2
f 9/6/5 23/23/5 21/22/5
f 9/24/4 12/117/4 24/25/4
f 24/21/6 12/5/6 20/12/6
f 18/28/2 25/118/2 26/29/2
f 17/31/7 28/119/7 29/32/7
f 2/3/8 10/4/8 13/10/8
f 16/35/2 30/120/2 28/36/2
f 31/38/9 32/121/9 30/39/9
f 33/41/4 34/122/4 25/42/4
f 19/44/3 26/123/3 36/45/3
f 38/47/8 39/51/8 40/48/8
f 41/50/8 42/53/8 39/51/8
f 41/50/8 43/54/8 44/52/8
f 43/54/8 45/87/8 46/55/8
f 48/56/1 49/124/1 50/57/1
f 6/59/10 49/125/10 48/60/10
f 5/62/1 4/108/1 1/63/1
f 8/65/8 47/126/8 50/66/8
f 7/68/3 48/127/3 47/69/3
f 5/71/4 50/128/4 49/72/4
f 51/74/8 52/88/8 37/49/8
f 54/75/10 55/78/10 56/76/10
f 55/78/10 57/86/10 58/79/10
f 58/79/10 57/86/10 59/80/10
f 60/81/10 59/80/10 61/82/10
f 63/84/10 54/75/10 53/77/10
f 57/86/1 55/78/1 39/51/1
f 58/79/11 60/81/11 43/54/11
f 60/81/12 62/83/12 45/87/12
f 64/85/13 53/77/13 37/49/13
f 59/80/14 57/86/14 42/53/14
f 54/75/15 63/84/15 51/74/15
f 62/83/2 61/82/2 46/55/2
f 53/77/16 56/76/16 38/47/16
f 61/82/17 59/80/17 44/52/17
f 55/78/18 54/75/18 40/48/18
f 63/84/2 64/85/2 52/88/2
f 56/76/2 58/79/2 41/50/2
f 66/89/19 67/129/19 68/90/19
f 69/92/1 70/130/1 67/93/1
f 71/95/20 72/131/20 70/96/20
f 74/98/19 75/132/19 76/99/19
f 77/101/1 78/133/1 75/102/1
f 79/104/20 80/134/20 78/105/20
